<svg xmlns="http://www.w3.org/2000/svg" width="1200" height="630" viewBox="0 0 1200 630" role="img" aria-labelledby="title desc">
  <title id="title">humane.directory open graph image</title>
  <desc id="desc">The humane.directory logo, title, and the site's opening bullet list.</desc>
  <style>
    .logo-bracket {
      fill: #111111;
    }

    .logo-mark {
      stroke: #111111;
    }

    .logo-dot {
      fill: #111111;
    }

    @media (prefers-color-scheme: dark) {
      .logo-bracket {
        fill: #e0e0e0;
      }

      .logo-mark {
        stroke: #e0e0e0;
      }

      .logo-dot {
        fill: #e0e0e0;
      }
    }

    .og-bg {
      fill: #f7f4ef;
    }

    .og-title {
      fill: #111111;
      font-family: Arial, sans-serif;
      font-size: 72px;
      font-weight: 700;
    }

    .og-intro {
      fill: #111111;
      font-family: Arial, sans-serif;
      font-size: 34px;
    }

    .og-bullet {
      fill: #111111;
      font-family: Arial, sans-serif;
      font-size: 34px;
    }

    .og-bullet-dot {
      fill: #111111;
    }
  </style>

  <rect class="og-bg" width="1200" height="630" rx="0" ry="0" />

  <g transform="translate(78 58) scale(1.45)">
    <text class="logo-bracket" x="25" y="80" font-family="Georgia, serif" font-size="60">&lt;</text>
  <text class="logo-bracket" x="110" y="80" font-family="Georgia, serif" font-size="60">&gt;</text>

  <g class="logo-mark" stroke-width="3" stroke-linecap="round" stroke-linejoin="round" fill="none">
    <circle class="logo-dot" cx="80" cy="35" r="4.5" stroke="none"/>

    <path d="M 80 45 C 70 55, 85 75, 75 95 M 80 65 C 95 70, 95 85, 90 95" />

    <path d="M 60 40 C 70 50, 90 50, 100 40" />
  </g>
  </g>

  <text class="og-title" x="320" y="152">humane.directory</text>
  <text class="og-intro" x="80" y="265">A curated list of personal websites that are:</text>

  <circle class="og-bullet-dot" cx="104" cy="334" r="7" />
  <text class="og-bullet" x="128" y="345">text-oriented</text>

  <circle class="og-bullet-dot" cx="104" cy="394" r="7" />
  <text class="og-bullet" x="128" y="405">updated regularly</text>

  <circle class="og-bullet-dot" cx="104" cy="454" r="7" />
  <text class="og-bullet" x="128" y="465">published with RSS/Atom feeds</text>

  <circle class="og-bullet-dot" cx="104" cy="514" r="7" />
  <text class="og-bullet" x="128" y="525">written by thoughtful human beings</text>
</svg>
